<?xml version="1.0" encoding="iso-8859-1"?>
<!-- Generator: Adobe Illustrator 19.0.0, SVG Export Plug-In . SVG Version: 6.00 Build 0)  -->
<svg version="1.1" id="Capa_1" xmlns="http://www.w3.org/2000/svg" xmlns:xlink="http://www.w3.org/1999/xlink" x="0px" y="0px"
	 viewBox="0 0 436.907 436.907" style="enable-background:new 0 0 436.907 436.907;" xml:space="preserve">
<circle style="fill:#EFC84A;" cx="218.453" cy="218.453" r="218.453"/>
<g style="opacity:0.1;">
	<path d="M217.429,94.891h-93.867v106.155l6.827,6.827H90.453v106.155l123.221,122.88c1.707,0,3.413,0,4.779,0
		c94.208,0,174.421-59.733,205.141-143.019L258.389,128.341L217.429,94.891z"/>
</g>
<polygon style="fill:#D15241;" points="240.299,230.4 346.453,235.861 346.453,336.555 245.419,336.555 "/>
<polygon style="fill:#E56353;" points="245.419,235.861 346.453,235.861 305.835,202.069 211.968,202.069 "/>
<polygon style="fill:#CE412D;" points="211.968,202.069 245.419,235.861 245.419,336.555 211.968,308.224 "/>
<polygon style="fill:#3A556A;" points="118.443,235.861 224.939,241.323 224.939,342.016 124.245,342.016 "/>
<polygon style="fill:#64798A;" points="124.245,241.323 224.939,241.323 184.32,207.531 90.453,207.531 "/>
<polygon style="fill:#2F4859;" points="90.453,207.531 124.245,241.323 124.245,342.016 90.453,313.685 "/>
<polygon style="fill:#3EA69B;" points="151.211,122.197 258.389,128.341 258.389,229.376 157.355,229.376 "/>
<polygon style="fill:#44C4A1;" points="157.355,128.341 258.389,128.341 217.429,94.891 123.563,94.891 "/>
<polygon style="fill:#31978C;" points="123.563,94.891 157.355,128.341 157.355,229.376 123.563,200.704 "/>
<g>
	<path style="fill:#EBF0F3;" d="M188.757,144.043h24.917v68.267h-13.312v-54.955h-11.605V144.043z"/>
	<path style="fill:#EBF0F3;" d="M182.272,280.917c1.707-2.389,2.389-4.779,2.389-7.168s-0.683-4.096-2.048-5.803
		c-1.365-1.365-3.072-2.389-5.12-2.389c-3.755,0-7.509,3.072-10.923,9.216l-10.923-7.168c2.731-5.12,6.144-8.533,9.557-11.264
		c3.413-2.389,7.851-3.755,12.971-3.755c5.461,0,9.899,1.707,13.995,5.461s6.144,8.875,6.144,15.36c0,3.413-0.683,6.827-2.389,10.24
		c-1.707,3.072-4.437,7.509-8.875,12.288l-10.923,12.971h24.235v13.653h-44.032v-11.264l18.091-20.48
		C178.176,286.72,180.565,283.307,182.272,280.917z"/>
	<path style="fill:#EBF0F3;" d="M274.091,260.437v-12.971h37.547v10.581l-12.629,16.043c4.779,1.024,8.875,3.072,11.605,6.827
		s4.096,7.851,4.096,12.629c0,7.168-2.048,12.629-6.485,16.725s-9.899,6.144-16.725,6.144c-6.827,0-13.653-2.731-20.821-7.851
		l5.803-12.288c5.803,4.437,10.923,6.827,15.701,6.827c2.731,0,5.12-0.683,6.827-2.389s2.731-3.755,2.731-6.485
		s-1.024-5.12-3.072-6.827c-2.048-1.707-4.779-2.389-8.533-2.389c-2.048,0-4.779,0.683-8.192,1.707v-11.264l11.947-15.36h-19.797
		V260.437z"/>
</g>
<g>
</g>
<g>
</g>
<g>
</g>
<g>
</g>
<g>
</g>
<g>
</g>
<g>
</g>
<g>
</g>
<g>
</g>
<g>
</g>
<g>
</g>
<g>
</g>
<g>
</g>
<g>
</g>
<g>
</g>
</svg>
